<svg id="图层_1" data-name="图层 1" xmlns="http://www.w3.org/2000/svg" viewBox="0 0 296.46 114.72"><defs><style>.cls-1,.cls-2{fill:#fff;}.cls-2{stroke:#fff;stroke-miterlimit:10;stroke-width:0.5px;}</style></defs><title>logo</title><path class="cls-1" d="M-294.61,257.55a.56.56,0,0,0-.07-.18.72.72,0,0,0-1-.26.73.73,0,0,0-.35.63c.47,19.16-30.62,33.12-58.14,41.66a1.56,1.56,0,0,0-.33.14,1.45,1.45,0,0,0-.61.73l-4,8.76h0a.74.74,0,0,0,0,.72.72.72,0,0,0,.93.28h0c26.6-10.8,75-25.58,63.52-52.48Z" transform="translate(359.15 -195.38)"/><path class="cls-1" d="M-281.52,195.74a.71.71,0,0,0-.91-.29v0c-9,3.39-16.63,6.51-23.15,9.38l.26-3.27a.76.76,0,0,0-.08-.51.73.73,0,0,0-1-.26c-4.3,1.77-20.73,7.72-51.2,9.74h0a.44.44,0,0,0-.37.45.44.44,0,0,0,.36.42h.1c7.36,1,22.34,2.88,32.72,2.7h.21c-14.18,6-28.39,20.26-21.54,34.28a.91.91,0,0,0,.07.14.72.72,0,0,0,1,.25.72.72,0,0,0,.35-.62h0c-1.18-18.15,28.93-32.93,58.22-42a2,2,0,0,0,.34-.14,1.46,1.46,0,0,0,.64-.81h0l4-8.77s0,0,0,0l0-.07h0A.7.7,0,0,0-281.52,195.74Z" transform="translate(359.15 -195.38)"/><path class="cls-1" d="M-346.67,284.54v0a2,2,0,0,0-.62.22,2,2,0,0,0-.69.71h0l-4.23,8.79a.74.74,0,0,0,0,.72.73.73,0,0,0,.69.35h0l0,0a.33.33,0,0,0,.16,0c44.09-12.85,63.7-34.65,46.76-49.8h0a.71.71,0,0,0-.81-.06.7.7,0,0,0-.25,1h0C-302.48,253.46-301,270.34-346.67,284.54Z" transform="translate(359.15 -195.38)"/><path class="cls-1" d="M-288.38,210.55a.71.71,0,0,0-.9-.3c-44,12.83-63.6,34.56-46.86,49.7a.73.73,0,0,0,.92.16.72.72,0,0,0,.25-1h0c-3.14-7.06-4.63-24,41.33-38.2h0a1.42,1.42,0,0,0,.45-.16,1.45,1.45,0,0,0,.59-.69l4.23-8.79h0A.75.75,0,0,0-288.38,210.55Z" transform="translate(359.15 -195.38)"/><path class="cls-2" d="M-135.28,294.17H-138v-1.58h2.76a3.27,3.27,0,0,0,.76-.08,3.86,3.86,0,0,0,.73-.23l7.32-3.4a1.25,1.25,0,0,0,.59-.49,1.28,1.28,0,0,0,.21-.71v-5.05h1.58v5.05a2.87,2.87,0,0,1-.47,1.58,2.89,2.89,0,0,1-1.26,1.06l-7.33,3.4a6.11,6.11,0,0,1-1,.34A5.57,5.57,0,0,1-135.28,294.17Z" transform="translate(359.15 -195.38)"/><path class="cls-2" d="M-123.28,294.17H-126a5.57,5.57,0,0,1-1.08-.11,6.6,6.6,0,0,1-1-.33l-7.36-3.42a2.87,2.87,0,0,1-1.24-1.05,2.87,2.87,0,0,1-.47-1.58v-5.05h1.58v5.05a1.28,1.28,0,0,0,.21.71,1.26,1.26,0,0,0,.57.48l7.36,3.42a3.92,3.92,0,0,0,.71.22,3.27,3.27,0,0,0,.76.08h2.69Z" transform="translate(359.15 -195.38)"/><polygon class="cls-2" points="235.81 86.89 234.24 86.89 234.24 86.16 222.72 86.16 222.72 86.89 221.14 86.89 221.14 84.59 235.81 84.59 235.81 86.89"/><rect class="cls-2" x="221.16" y="88.45" width="14.69" height="1.58"/><rect class="cls-2" x="227.72" y="84.04" width="1.58" height="1.7"/><rect class="cls-2" x="241.29" y="97.23" width="14.73" height="1.49"/><rect class="cls-2" x="241.29" y="88.85" width="14.73" height="1.49"/><rect class="cls-2" x="241.29" y="92.78" width="14.73" height="1.49"/><path class="cls-2" d="M-110.6,281H-107a1.51,1.51,0,0,1,.69.18,1.5,1.5,0,0,1,.51.49l1.14,1.9h1.74l-1.61-2.66a2.85,2.85,0,0,0-1-1,2.81,2.81,0,0,0-1.42-.37h-7.14a2.84,2.84,0,0,0-1.42.37,2.85,2.85,0,0,0-1,1l-1.6,2.66h1.73l1.15-1.9a1.47,1.47,0,0,1,.5-.49,1.51,1.51,0,0,1,.69-.18Z" transform="translate(359.15 -195.38)"/><rect class="cls-2" x="247.91" y="89.59" width="1.49" height="8.38"/><path class="cls-2" d="M-67.09,291.76h-7.77v-1.49h7.77a.29.29,0,0,0,.21-.08.3.3,0,0,0,.09-.21v-2.05h1.49V290a1.81,1.81,0,0,1-.52,1.26A1.78,1.78,0,0,1-67.09,291.76Z" transform="translate(359.15 -195.38)"/><rect class="cls-2" x="284.29" y="86.51" width="9.56" height="1.49"/><rect class="cls-2" x="284.29" y="90.22" width="9.56" height="1.49"/><rect class="cls-2" x="288.32" y="87.25" width="1.49" height="8.38"/><path class="cls-2" d="M-66,294H-77.22v-14.5h14.28v11.39a3.09,3.09,0,0,1-.91,2.2A3.13,3.13,0,0,1-66,294Zm-9.68-1.49H-66a1.64,1.64,0,0,0,1.15-.47,1.65,1.65,0,0,0,.47-1.15V281h-11.3Z" transform="translate(359.15 -195.38)"/><path class="cls-2" d="M-86.18,292.8H-97.6V280.66h14.53v9a3.09,3.09,0,0,1-.91,2.19A3.09,3.09,0,0,1-86.18,292.8Zm-9.93-1.48h9.93a1.58,1.58,0,0,0,1.14-.48,1.58,1.58,0,0,0,.48-1.14v-7.55H-96.11Z" transform="translate(359.15 -195.38)"/><rect class="cls-2" x="268.07" y="84.04" width="1.49" height="14.73"/><path class="cls-2" d="M-209.08,293.44a7,7,0,0,1-7-7,7,7,0,0,1,7-7,7,7,0,0,1,6,3.43.78.78,0,0,1,.08.58.82.82,0,0,1-.35.47L-214,290.16l-.77-1.33,9.93-5.74a5.43,5.43,0,0,0-4.23-2,5.45,5.45,0,0,0-5.44,5.44,5.45,5.45,0,0,0,5.44,5.44,5.45,5.45,0,0,0,4.73-2.77l1.33.76A7,7,0,0,1-209.08,293.44Z" transform="translate(359.15 -195.38)"/><rect class="cls-2" x="193.28" y="84.78" width="1.53" height="13.28"/><path class="cls-2" d="M-164,276.71a1.14,1.14,0,0,1-1.15,1.15,1.14,1.14,0,0,1-1.14-1.15,1.14,1.14,0,0,1,1.14-1.14A1.14,1.14,0,0,1-164,276.71Z" transform="translate(359.15 -195.38)"/><path class="cls-2" d="M-194.72,293.44a7,7,0,0,1-7-7,7,7,0,0,1,7-7,7,7,0,0,1,6.59,4.71l-1.45.5a5.43,5.43,0,0,0-5.14-3.69,5.44,5.44,0,0,0-5.43,5.44,5.44,5.44,0,0,0,5.43,5.44,5.41,5.41,0,0,0,5.07-3.48l1.42.55A6.91,6.91,0,0,1-194.72,293.44Z" transform="translate(359.15 -195.38)"/><path class="cls-2" d="M-181.07,293.44a6.12,6.12,0,0,1-6.12-6.11h1.53a4.59,4.59,0,0,0,4.59,4.59,4.59,4.59,0,0,0,4.58-4.59H-175A6.12,6.12,0,0,1-181.07,293.44Z" transform="translate(359.15 -195.38)"/><rect class="cls-2" x="182.66" y="84.48" width="1.53" height="13.28"/><rect class="cls-2" x="171.96" y="84.48" width="1.53" height="7.47"/><path class="cls-2" d="M-171.67,286h-1.53a5.87,5.87,0,0,1,5.87-5.87v1.53A4.35,4.35,0,0,0-171.67,286Z" transform="translate(359.15 -195.38)"/><rect class="cls-2" x="185.95" y="84.78" width="1.53" height="13.28"/><path class="cls-2" d="M-155.51,293.44a4.74,4.74,0,0,1-4.74-4.74h1.53a3.22,3.22,0,0,0,3.21,3.22Z" transform="translate(359.15 -195.38)"/><rect class="cls-2" x="198.9" y="80.12" width="1.53" height="13.67"/><rect class="cls-2" x="196.26" y="84.52" width="7.37" height="1.53"/><path class="cls-2" d="M-222,293.44a6.32,6.32,0,0,1-5.34-2.64l1.27-.86a4.81,4.81,0,0,0,4.07,2c1.11,0,3.71-.29,3.71-2.93,0-1.33-2.06-1.8-3.83-1.8-1.18,0-4.79,0-4.79-3.56,0-2.92,2.52-4.22,5-4.22a5.58,5.58,0,0,1,4.83,2.52l-1.33.75a4.08,4.08,0,0,0-3.5-1.74c-.58,0-3.48.13-3.48,2.69,0,1.25.54,2,3.26,2,3.3,0,5.36,1.28,5.36,3.33C-216.76,291.7-218.82,293.44-222,293.44Z" transform="translate(359.15 -195.38)"/><polygon class="cls-2" points="207.76 104.27 209.41 104.27 211.66 98.98 212.34 97.38 217.87 84.39 216.21 84.39 211.51 95.43 206.81 84.39 205.15 84.39 210.68 97.38 207.76 104.27"/><path class="cls-2" d="M-258.58,293.08H-260l5.48-12.67h1.25l5.44,12.67h-1.43l-1.39-3.32h-6.56Zm1.86-4.51h5.58l-2.79-6.73Z" transform="translate(359.15 -195.38)"/><path class="cls-2" d="M-247.28,293.44h-2.22l-1.39-3.33H-257l-1.37,3.33h-2.2l5.78-13.39H-253Zm-1.74-.71h.65l-5.13-12h-.78l-5.17,12h.63l1.37-3.33h7Zm-1.58-3.8h-6.66l3.33-8Zm-5.58-.71h4.5l-2.25-5.44Z" transform="translate(359.15 -195.38)"/><path class="cls-2" d="M-271.71,280.41h4.21c3.17,0,6.66,2.11,6.66,6.34s-3.49,6.33-6.66,6.33h-4.21Zm1.29,11.53h2.56c3.81,0,5.66-2.58,5.66-5.19s-1.85-5.19-5.66-5.19h-2.56Z" transform="translate(359.15 -195.38)"/><path class="cls-2" d="M-267.5,293.44h-4.57V280.05h4.57c3.4,0,7,2.35,7,6.7S-264.1,293.44-267.5,293.44Zm-3.85-.71h3.85c3.13,0,6.3-2.06,6.3-6s-3.17-6-6.3-6h-3.85Zm3.49-.43h-2.92V281.2h2.92c4.13,0,6,2.88,6,5.55S-263.73,292.3-267.86,292.3Zm-2.2-.72h2.2c3.66,0,5.3-2.43,5.3-4.83s-1.64-4.83-5.3-4.83h-2.2Z" transform="translate(359.15 -195.38)"/><path class="cls-2" d="M-238.62,282.13a3,3,0,0,0-2.61-1.27,2.49,2.49,0,0,0-2.7,2.38c0,1.61,1.34,2,2.75,2.49,1.79.59,3.76,1.16,3.76,3.7s-2.13,3.65-4.13,3.65a4.87,4.87,0,0,1-4-1.88l1.11-.82a3.34,3.34,0,0,0,2.9,1.59,2.61,2.61,0,0,0,2.81-2.45c0-1.77-1.49-2.22-3.1-2.72s-3.4-1.25-3.4-3.54c0-2.45,2.18-3.49,4-3.49a4.4,4.4,0,0,1,3.58,1.54Z" transform="translate(359.15 -195.38)"/><path class="cls-2" d="M-241.55,293.44a5.23,5.23,0,0,1-4.28-2l-.21-.29,1.71-1.27.2.33a3,3,0,0,0,2.6,1.43,2.27,2.27,0,0,0,2.45-2.1c0-1.42-1.07-1.82-2.81-2.36-1.31-.41-3.69-1.14-3.69-3.9s2.28-3.85,4.4-3.85a4.78,4.78,0,0,1,3.87,1.68l.21.28-1.59,1.28-.22-.31a2.67,2.67,0,0,0-2.32-1.12,2.16,2.16,0,0,0-2.34,2c0,1.26.92,1.62,2.43,2.12l.23.08c1.72.56,3.85,1.26,3.85,4S-239.39,293.44-241.55,293.44Zm-3.48-2.17a4.62,4.62,0,0,0,3.48,1.46c1.88,0,3.77-1,3.77-3.3s-1.63-2.74-3.35-3.31l-.24-.08c-1.37-.45-2.92-1-2.92-2.8a2.83,2.83,0,0,1,3.06-2.74,3.49,3.49,0,0,1,2.67,1.12l.45-.36a4.22,4.22,0,0,0-3.07-1.13c-1.77,0-3.68,1-3.68,3.13s1.55,2.71,3.15,3.2,3.35,1,3.35,3.06a3,3,0,0,1-3.17,2.81,3.76,3.76,0,0,1-3-1.44Z" transform="translate(359.15 -195.38)"/><rect class="cls-2" x="124.19" y="90.42" width="5.68" height="1.8"/><path class="cls-1" d="M-235,260.61a10.55,10.55,0,0,1-2.19-.69l-3.43-1.59,8.66-4a9.71,9.71,0,0,0,4.25-3.59,9.71,9.71,0,0,0,1.59-5.33v-6.91h2.57v-5.93h-2.57v-3.07h-5.93v3.07h-31.22v-3.07h-5.93v3.07h-2.67v5.93h2.67v6.91a9.68,9.68,0,0,0,1.59,5.33,9.53,9.53,0,0,0,4.19,3.56l8.72,4-3.37,1.57a12.09,12.09,0,0,1-2.26.71,11.16,11.16,0,0,1-2.37.25h-9.36v5.93h9.36a17.1,17.1,0,0,0,3.57-.37,16.76,16.76,0,0,0,3.5-1.12l8-3.7,8,3.74a17.88,17.88,0,0,0,3.42,1.08,17.34,17.34,0,0,0,3.58.37h9.12v-5.93h-9.12A11.32,11.32,0,0,1-235,260.61Zm-28.27-22.12h31.22v6.91a3.84,3.84,0,0,1-.62,2.08,3.83,3.83,0,0,1-1.72,1.42l-13.27,6.16L-261,248.87a3.74,3.74,0,0,1-1.66-1.39,3.76,3.76,0,0,1-.62-2.08Z" transform="translate(359.15 -195.38)"/><polygon class="cls-1" points="93.13 30.62 129.53 30.62 129.53 32.98 135.46 32.98 135.46 24.69 114.4 24.69 114.4 22.9 108.47 22.9 108.47 24.69 87.2 24.69 87.2 32.98 93.13 32.98 93.13 30.62"/><polygon class="cls-1" points="206.01 23 199.78 23 195.72 32.66 193.64 32.66 193.64 37.99 196.75 37.99 196.75 71.39 202.68 71.39 202.68 30.92 206.01 23"/><polygon class="cls-1" points="243.34 24.79 227.53 24.79 227.53 23 221.6 23 221.6 24.79 206.02 24.79 206.02 30.73 243.34 30.73 243.34 24.79"/><rect class="cls-1" x="206.02" y="33.39" width="37.32" height="5.93"/><rect class="cls-1" x="206.02" y="41.98" width="37.32" height="5.93"/><path class="cls-1" d="M-153.28,266.79h28.87a8.59,8.59,0,0,0,6.11-2.53,8.59,8.59,0,0,0,2.53-6.11V245.33h-37.51Zm31.58-8.64a2.69,2.69,0,0,1-.79,1.92,2.71,2.71,0,0,1-1.92.79h-22.94v-9.6h25.65Z" transform="translate(359.15 -195.38)"/><rect class="cls-1" x="154.76" y="23.33" width="34.59" height="5.5"/><rect class="cls-1" x="154.76" y="65.91" width="34.59" height="5.5"/><path class="cls-1" d="M-170.06,249.82V226.34h-34.26v31.9h25.84a8.38,8.38,0,0,0,5.95-2.47A8.36,8.36,0,0,0-170.06,249.82Zm-28.77-4.95h23.27v4.95a2.93,2.93,0,0,1-.85,2.07,2.91,2.91,0,0,1-2.07.85h-20.35Zm23.27-5.49h-23.27v-7.55h23.27Z" transform="translate(359.15 -195.38)"/><polygon class="cls-1" points="152.69 22.91 147.2 22.91 147.2 29.8 146.02 29.8 146.02 22.91 140.52 22.91 140.52 68.61 146.02 68.61 146.02 35.29 147.2 35.29 147.2 71.29 152.69 71.29 152.69 35.29 153.98 35.29 153.98 29.8 152.69 29.8 152.69 22.91"/><path class="cls-1" d="M-95.68,260.85a1.53,1.53,0,0,1-.45-1.08v-8.3h-5.5v8.3a7,7,0,0,0,2.06,5,7,7,0,0,0,5,2.06h22.5V261.3H-94.6A1.51,1.51,0,0,1-95.68,260.85Z" transform="translate(359.15 -195.38)"/><path class="cls-1" d="M-66.17,247a8.37,8.37,0,0,0,2.46-6V220.52H-84v-2.23h-5.5v2.23h-20.27v29h37.62A8.39,8.39,0,0,0-66.17,247Zm-3-18.7h-35V226H-69.2Zm0,5.49V236h-35v-2.14Zm-35,7.63h35a2.88,2.88,0,0,1-.82,1.69,2.92,2.92,0,0,1-2.07.86h-32.12Z" transform="translate(359.15 -195.38)"/><path class="cls-1" d="M-108.82,260.71a.56.56,0,0,1-.17.41.6.6,0,0,1-.42.18h-1.77v5.49h1.77a6,6,0,0,0,4.3-1.78,6,6,0,0,0,1.78-4.3v-9.24h-5.49Z" transform="translate(359.15 -195.38)"/><path class="cls-1" d="M-64.49,261.3a.62.62,0,0,1-.41-.17.59.59,0,0,1-.17-.42v-9.24h-5.5v9.24a6,6,0,0,0,1.78,4.3,6,6,0,0,0,4.3,1.78h1.55V261.3Z" transform="translate(359.15 -195.38)"/><path class="cls-1" d="M-94.19,251.47v2a5.45,5.45,0,0,0,.87,3,5.27,5.27,0,0,0,4.43,2.39h16.74V253.6l-16.1,0a.63.63,0,0,1-.63-.63v-1.52Z" transform="translate(359.15 -195.38)"/></svg>